<svg viewBox="0 0 60 60" xmlns="http://www.w3.org/2000/svg"><g opacity=".5"><path d="M8.77 22.14a1.006 1.006 0 0 1-.71-.29.952.952 0 0 1-.22-.33 1.063 1.063 0 0 1 0-.76 1.188 1.188 0 0 1 .22-.33.994.994 0 0 1 .32-.21.97.97 0 0 1 .58-.06.606.606 0 0 1 .19.06.548.548 0 0 1 .17.09.935.935 0 0 1 .15.12 1.007 1.007 0 0 1 .22.33.942.942 0 0 1 0 .76.834.834 0 0 1-.22.33.987.987 0 0 1-.32.21.593.593 0 0 1-.19.06.618.618 0 0 1-.19.02ZM29.74 53.02a.996.996 0 0 1 .97-1.03h-.01a1 1 0 0 1 1.04.97 1.01 1.01 0 0 1-.97 1.03h-.03a1.003 1.003 0 0 1-1-.97Zm-3.07.75a1.011 1.011 0 0 1-.86-1.13 1.002 1.002 0 0 1 1.13-.85.995.995 0 0 1 .85 1.13 1 1 0 0 1-.99.86.583.583 0 0 1-.13-.01Zm7-1.04a1.002 1.002 0 0 1 .78-1.18 1.002 1.002 0 0 1 1.18.78 1.002 1.002 0 0 1-.78 1.18 1.446 1.446 0 0 1-.2.02 1.004 1.004 0 0 1-.98-.8Zm-11.01.13a1.003 1.003 0 0 1-.65-1.26.999.999 0 0 1 1.26-.65 1.007 1.007 0 0 1 .65 1.26 1.009 1.009 0 0 1-.96.69 1.034 1.034 0 0 1-.3-.04Zm14.83-1.08a1 1 0 0 1 .57-1.3.996.996 0 0 1 1.29.56.995.995 0 0 1-.56 1.3.941.941 0 0 1-.37.07 1.003 1.003 0 0 1-.93-.63Zm-18.62-.51a1.012 1.012 0 0 1-.43-1.35 1.008 1.008 0 0 1 1.36-.42 1.01 1.01 0 0 1 .42 1.35 1.002 1.002 0 0 1-.89.53 1.072 1.072 0 0 1-.46-.11Zm22.22-1.09a1.009 1.009 0 0 1 .34-1.38 1.006 1.006 0 0 1 1.37.34.994.994 0 0 1-.33 1.37.978.978 0 0 1-.52.15 1.005 1.005 0 0 1-.86-.48ZM15.4 49.05a1 1 0 0 1-.18-1.4.991.991 0 0 1 1.4-.18 1.002 1.002 0 0 1 .19 1.4 1.003 1.003 0 0 1-.8.39 1.004 1.004 0 0 1-.61-.21Zm28.97-1.06a1.006 1.006 0 0 1 .09-1.41 1.001 1.001 0 0 1 1.42.09.997.997 0 0 1-.1 1.41.973.973 0 0 1-.66.25 1.01 1.01 0 0 1-.75-.34Zm-32-1.71a.996.996 0 0 1 .05-1.41 1.01 1.01 0 0 1 1.42.06.998.998 0 0 1-.06 1.41.979.979 0 0 1-.68.27.958.958 0 0 1-.73-.33Zm34.86-1.01a1.002 1.002 0 0 1-.15-1.41 1 1 0 0 1 1.41-.14 1.001 1.001 0 0 1 .14 1.41.988.988 0 0 1-.77.37 1 1 0 0 1-.63-.23ZM9.85 43.04a1 1 0 0 1 .29-1.38 1.012 1.012 0 0 1 1.39.29 1.002 1.002 0 0 1-.3 1.38 1.005 1.005 0 0 1-.54.17 1.012 1.012 0 0 1-.84-.46Zm39.73-.93a.998.998 0 0 1-.38-1.36.999.999 0 0 1 1.36-.38.999.999 0 0 1 .38 1.36 1.003 1.003 0 0 1-.87.51.972.972 0 0 1-.49-.13Zm1.78-3.52a.996.996 0 0 1-.61-1.27 1.003 1.003 0 0 1 1.28-.61.996.996 0 0 1 .61 1.27 1.007 1.007 0 0 1-.94.67 1.02 1.02 0 0 1-.34-.06Zm1.15-3.77a.999.999 0 0 1-.82-1.15 1.01 1.01 0 0 1 1.16-.82 1.005 1.005 0 0 1 .82 1.15 1.007 1.007 0 0 1-.99.84 1.008 1.008 0 0 1-.17-.02Zm-.51-4.9a1.005 1.005 0 0 1 1-1.01 1.003 1.003 0 0 1 1 1 1.003 1.003 0 0 1-1 1 .994.994 0 0 1-1-.99Zm-.33-3.76v.01a.987.987 0 0 1 .81-1.16.997.997 0 0 1 1.16.81 1.012 1.012 0 0 1-.82 1.16.987.987 0 0 1-.17.01.988.988 0 0 1-.98-.83Zm-.97-3.63v-.01a.986.986 0 0 1 .6-1.27.998.998 0 0 1 1.28.6 1.002 1.002 0 0 1-.6 1.28 1.058 1.058 0 0 1-.34.06 1.01 1.01 0 0 1-.94-.66Zm-1.58-3.42a.995.995 0 0 1 .37-1.36 1 1 0 0 1 1.37.37.999.999 0 0 1-.38 1.36.945.945 0 0 1-.49.13.994.994 0 0 1-.87-.5Zm-39.07-.62a.998.998 0 0 1-.3-1.38 1 1 0 0 1 1.38-.3 1 1 0 0 1 .31 1.38 1.003 1.003 0 0 1-.85.46.998.998 0 0 1-.54-.16Zm36.93-2.48a1.01 1.01 0 0 1 .13-1.41 1.001 1.001 0 0 1 1.41.14.997.997 0 0 1-.13 1.4.986.986 0 0 1-.64.23.99.99 0 0 1-.77-.36Zm-34.67-.75a.996.996 0 0 1-.06-1.41.997.997 0 0 1 1.41-.07 1.01 1.01 0 0 1 .07 1.42 1.022 1.022 0 0 1-.74.32 1.003 1.003 0 0 1-.68-.26Zm32.03-1.94a1 1 0 0 1-.11-1.41 1.012 1.012 0 0 1 1.42-.11 1.008 1.008 0 0 1 .1 1.41.994.994 0 0 1-.76.35 1.007 1.007 0 0 1-.65-.24Zm-29.25-.86a1 1 0 0 1 .17-1.4 1.002 1.002 0 0 1 1.41.17 1.014 1.014 0 0 1-.18 1.41v-.01a.946.946 0 0 1-.61.21.99.99 0 0 1-.79-.38Zm26.2-1.35a.998.998 0 0 1-.35-1.37.997.997 0 0 1 1.37-.34.996.996 0 0 1 .35 1.37 1.007 1.007 0 0 1-.86.48.935.935 0 0 1-.51-.14Zm-22.99-.94a.993.993 0 0 1 .41-1.35.995.995 0 0 1 1.35.41.995.995 0 0 1-.41 1.35.991.991 0 0 1-.47.12.987.987 0 0 1-.88-.53Zm19.6-.71a1.001 1.001 0 0 1-.57-1.29.99.99 0 0 1 1.29-.57.986.986 0 0 1 .57 1.29.988.988 0 0 1-.93.64.927.927 0 0 1-.36-.07Zm-16.05-1a.993.993 0 0 1 .63-1.26 1.01 1.01 0 0 1 1.27.64.997.997 0 0 1-.64 1.26 1.103 1.103 0 0 1-.31.05 1.006 1.006 0 0 1-.95-.69Zm12.43-.04a1.016 1.016 0 0 1-.79-1.18 1 1 0 0 1 1.18-.78 1.001 1.001 0 0 1 .79 1.17 1.023 1.023 0 0 1-.98.81 1.377 1.377 0 0 1-.2-.02Zm-8.64-1.03a1.01 1.01 0 0 1 .85-1.14 1 1 0 0 1 1.13.85 1.011 1.011 0 0 1-.84 1.14v-.01a.784.784 0 0 1-.15.01 1 1 0 0 1-.99-.85Zm4.9.62a1.012 1.012 0 0 1-.98-1.03.991.991 0 0 1 1.03-.97.995.995 0 0 1 .97 1.02.999.999 0 0 1-1 .98h-.02ZM8.81 39.96a1 1 0 0 1-.38-.08 1.171 1.171 0 0 1-.33-.21 1.034 1.034 0 0 1-.21-.33 1 1 0 0 1-.08-.38 1.136 1.136 0 0 1 .02-.19.59.59 0 0 1 .06-.19.574.574 0 0 1 .09-.17c.04-.06.08-.11.12-.16a1.15 1.15 0 0 1 .33-.21.955.955 0 0 1 .58-.06.618.618 0 0 1 .18.06.546.546 0 0 1 .17.09c.06.04.11.08.16.12.04.05.08.1.12.16a.552.552 0 0 1 .09.17.592.592 0 0 1 .06.19.628.628 0 0 1 .02.19 1.049 1.049 0 0 1-.29.71.94.94 0 0 1-.16.12.557.557 0 0 1-.17.09.649.649 0 0 1-.18.06 1.39 1.39 0 0 1-.2.02Z" fill="#6d6daa" class="fill-6d6daa"></path></g><path d="M8.808 39.953a1 1 0 0 1-.921-.61A23.844 23.844 0 0 1 6 30a24.151 24.151 0 0 1 .555-5.152 1 1 0 1 1 1.953.427A22.189 22.189 0 0 0 8 30a21.865 21.865 0 0 0 1.729 8.563 1.001 1.001 0 0 1-.921 1.39Z" fill="#6d6daa" class="fill-6d6daa"></path><g opacity=".5"><path d="M56.44 42.93a1.007 1.007 0 0 1-1-1 1 1 0 0 1 .08-.38.937.937 0 0 1 .21-.33 1.047 1.047 0 0 1 1.42 0 .924.924 0 0 1 .21.33.832.832 0 0 1 .08.38 1.007 1.007 0 0 1-1 1ZM30.64 59.01a.996.996 0 0 1 .94-1.05 1.01 1.01 0 0 1 1.06.94 1.01 1.01 0 0 1-.95 1.05h-.05a.998.998 0 0 1-1-.94Zm-3.03.9a1.012 1.012 0 0 1-.92-1.08 1.007 1.007 0 0 1 1.08-.92h-.01a1.006 1.006 0 0 1 .92 1.08 1 1 0 0 1-.99.92h-.08Zm6.96-1.25a1 1 0 0 1 .8-1.17h-.01a.997.997 0 0 1 1.18.79 1.006 1.006 0 0 1-.79 1.17 1.331 1.331 0 0 1-.19.02 1.015 1.015 0 0 1-.99-.81Zm-11.01.65a.996.996 0 0 1-.76-1.19 1.011 1.011 0 0 1 1.19-.77.996.996 0 0 1 .76 1.19.993.993 0 0 1-.97.79 1.845 1.845 0 0 1-.22-.02Zm14.87-1.54a.988.988 0 0 1 .62-1.26 1 1 0 0 1 1.27.62 1 1 0 0 1-.62 1.27 1.264 1.264 0 0 1-.32.05.996.996 0 0 1-.95-.68Zm-18.79.39a.997.997 0 0 1-.6-1.28.999.999 0 0 1 1.29-.59.993.993 0 0 1 .59 1.28 1.003 1.003 0 0 1-.94.65 1.018 1.018 0 0 1-.34-.06Zm22.48-1.79a.993.993 0 0 1 .45-1.34 1 1 0 0 1 1.34.44.988.988 0 0 1-.45 1.34v.01a.981.981 0 0 1-.44.1 1.006 1.006 0 0 1-.9-.55Zm-26.21.12a.998.998 0 0 1-.42-1.35 1.008 1.008 0 0 1 1.36-.42 1.013 1.013 0 0 1 .41 1.36 1.002 1.002 0 0 1-.89.53.983.983 0 0 1-.46-.12Zm29.68-2.01a1.011 1.011 0 0 1 .26-1.4 1.009 1.009 0 0 1 1.39.26.998.998 0 0 1-.26 1.39.982.982 0 0 1-.56.18 1.003 1.003 0 0 1-.83-.43Zm-33.15-.15a1.007 1.007 0 0 1-.23-1.4.996.996 0 0 1 1.4-.22.993.993 0 0 1 .23 1.39 1.029 1.029 0 0 1-.82.42 1.029 1.029 0 0 1-.58-.19Zm36.33-2.2a.997.997 0 0 1 .07-1.41.988.988 0 0 1 1.41.06.997.997 0 0 1-.07 1.41v.01a1.007 1.007 0 0 1-.67.26.999.999 0 0 1-.74-.33ZM9.3 51.71a.996.996 0 0 1-.04-1.41 1.009 1.009 0 0 1 1.42-.04 1.008 1.008 0 0 1 .03 1.42 1.025 1.025 0 0 1-.72.31.97.97 0 0 1-.69-.28Zm42.3-2.34a.999.999 0 0 1-.12-1.41.999.999 0 0 1 1.41-.12.998.998 0 0 1 .12 1.41 1.012 1.012 0 0 1-.77.35.989.989 0 0 1-.64-.23ZM6.54 48.7a.993.993 0 0 1 .16-1.41.998.998 0 0 1 1.4.16.994.994 0 0 1-.16 1.41 1.007 1.007 0 0 1-.62.21.989.989 0 0 1-.78-.37Zm47.5-2.44a1.004 1.004 0 0 1-.32-1.38h.01a.993.993 0 0 1 1.37-.32 1.005 1.005 0 0 1 .32 1.38 1.015 1.015 0 0 1-.85.47 1.011 1.011 0 0 1-.53-.15Zm-49.83-.92a1.007 1.007 0 0 1 .35-1.37.998.998 0 0 1 1.37.35.998.998 0 0 1-.35 1.37 1.032 1.032 0 0 1-.51.14.991.991 0 0 1-.86-.49ZM2.37 41.7a.99.99 0 0 1 .53-1.31.999.999 0 0 1 1.31.53 1.007 1.007 0 0 1-.53 1.31 1.09 1.09 0 0 1-.39.08.998.998 0 0 1-.92-.61Zm-1.34-3.87a.994.994 0 0 1 .71-1.22.996.996 0 0 1 1.22.7 1 1 0 0 1-.7 1.23 1.216 1.216 0 0 1-.26.03 1.001 1.001 0 0 1-.97-.74Zm-.79-4a1.001 1.001 0 0 1 .87-1.12 1 1 0 0 1 1.12.86 1.009 1.009 0 0 1-.87 1.12.627.627 0 0 1-.13.01 1.009 1.009 0 0 1-.99-.87Zm.75-3.07A1.009 1.009 0 0 1 0 29.75a.997.997 0 0 1 1.01-.99.995.995 0 0 1 .99 1 1.003 1.003 0 0 1-1 1H.99Zm.17-3.95a1.005 1.005 0 0 1-.85-1.14.996.996 0 0 1 1.13-.84.99.99 0 0 1 .85 1.13 1 1 0 0 1-.99.86c-.05 0-.1-.01-.14-.01Zm.69-3.89a1.006 1.006 0 0 1-.68-1.24 1.001 1.001 0 0 1 1.23-.69 1.004 1.004 0 0 1 .69 1.24 1.003 1.003 0 0 1-.96.73 1.352 1.352 0 0 1-.28-.04Zm1.23-3.76a.995.995 0 0 1-.51-1.32v-.01a.994.994 0 0 1 1.32-.5 1.005 1.005 0 0 1 .51 1.32 1.016 1.016 0 0 1-.92.59 1.13 1.13 0 0 1-.4-.08ZM4.8 15.6a1.003 1.003 0 0 1-.32-1.38.994.994 0 0 1 1.37-.32.994.994 0 0 1 .33 1.37 1 1 0 0 1-.85.48 1.039 1.039 0 0 1-.53-.15ZM7 12.31a1 1 0 0 1-.14-1.41 1 1 0 0 1 1.41-.13.99.99 0 0 1 .13 1.41 1.006 1.006 0 0 1-.77.36.999.999 0 0 1-.63-.23Zm42.19-2.7a1.009 1.009 0 0 1-.04-1.42.996.996 0 0 1 1.41-.04 1.008 1.008 0 0 1 .04 1.42.975.975 0 0 1-.73.31.996.996 0 0 1-.68-.27ZM9.62 9.35a.995.995 0 0 1 .05-1.41 1.009 1.009 0 0 1 1.42.05 1.019 1.019 0 0 1-.06 1.42 1.036 1.036 0 0 1-.68.26.983.983 0 0 1-.73-.32Zm36.62-2.16a1.005 1.005 0 0 1-.23-1.4.993.993 0 0 1 1.39-.23.993.993 0 0 1 .23 1.39.97.97 0 0 1-.81.42 1.04 1.04 0 0 1-.58-.18Zm-33.63-.42a.988.988 0 0 1 .25-1.39.99.99 0 0 1 1.39.25A1.007 1.007 0 0 1 14 7.02a.99.99 0 0 1-.57.18.985.985 0 0 1-.82-.43Zm30.38-1.58a.997.997 0 0 1-.42-1.35.994.994 0 0 1 1.35-.42.994.994 0 0 1 .42 1.35 1.003 1.003 0 0 1-.89.53.968.968 0 0 1-.46-.11Zm-27.07-.57a1.013 1.013 0 0 1 .44-1.35.999.999 0 0 1 1.34.44.994.994 0 0 1-.43 1.34.931.931 0 0 1-.45.11 1.015 1.015 0 0 1-.9-.54Zm23.58-.97a.998.998 0 0 1-.6-1.28.994.994 0 0 1 1.28-.6.998.998 0 0 1 .6 1.28.998.998 0 0 1-.94.66 1.01 1.01 0 0 1-.34-.06Zm-20-.71a1 1 0 0 1 .62-1.27.988.988 0 0 1 1.27.61 1.012 1.012 0 0 1-.61 1.28v-.01a.964.964 0 0 1-.33.06 1.01 1.01 0 0 1-.95-.67Zm16.33-.33a1.003 1.003 0 0 1-.77-1.19.996.996 0 0 1 1.18-.77 1.011 1.011 0 0 1 .78 1.19 1.002 1.002 0 0 1-.98.79 1.513 1.513 0 0 1-.21-.02Zm-12.56-.85a1.006 1.006 0 0 1 .79-1.17 1.003 1.003 0 0 1 1.18.78 1.01 1.01 0 0 1-.79 1.18 1.22 1.22 0 0 1-.2.02 1.012 1.012 0 0 1-.98-.81Zm8.78.31A.997.997 0 0 1 31.13 1 .998.998 0 0 1 32.2.08h-.01a.999.999 0 0 1 .93 1.07 1.011 1.011 0 0 1-1 .93.2.2 0 0 1-.07-.01Zm-4.88-.95a1.004 1.004 0 0 1 .94-1.06.99.99 0 0 1 1.06.93 1.004 1.004 0 0 1-.94 1.06h.01a.17.17 0 0 1-.07.01 1.012 1.012 0 0 1-1-.94ZM52.61 12.84a1.052 1.052 0 0 1-.71-.29l-.12-.15a.78.78 0 0 1-.09-.18.653.653 0 0 1-.06-.18 1.399 1.399 0 0 1-.02-.2 1 1 0 1 1 2 0 .7.7 0 0 1-.02.2.653.653 0 0 1-.06.18.78.78 0 0 1-.09.18 1.468 1.468 0 0 1-.12.15l-.15.12a.772.772 0 0 1-.18.09.624.624 0 0 1-.18.06 1.377 1.377 0 0 1-.2.02Z" fill="#6d6daa" class="fill-6d6daa"></path></g><path d="M57.82 39.212a1.002 1.002 0 0 1-.959-1.283A28.019 28.019 0 0 0 58 30a27.686 27.686 0 0 0-6.168-17.533 1 1 0 0 1 1.559-1.254 30.051 30.051 0 0 1 5.388 27.282 1 1 0 0 1-.959.717Z" fill="#6d6daa" class="fill-6d6daa"></path><circle cx="30" cy="30" r="5" fill="#edb68a" class="fill-fff27d"></circle><path d="M30 28a4.983 4.983 0 0 1 4.745 3.5A4.946 4.946 0 0 0 35 30a5 5 0 1 0-10 0 4.946 4.946 0 0 0 .254 1.5A4.983 4.983 0 0 1 30 28Z" fill="#edb68a" opacity=".75" class="fill-ffffff"></path><circle cx="8" cy="23" r="2" fill="#c9c1f5" class="fill-c9c1f5"></circle><circle cx="57" cy="40" r="2" fill="#ff99b1" class="fill-ff99b1"></circle><path d="M36.264 21.995a.965.965 0 0 1-.46-.116 1.042 1.042 0 0 1-.26-.196A9.93 9.93 0 0 0 30 20a1 1 0 0 1 0-2 11.918 11.918 0 0 1 6.86 2.16 1 1 0 0 1 .309 1.294 1.035 1.035 0 0 1-.905.54Zm-.001-.98.005.003Z" fill="#6d6daa" class="fill-6d6daa"></path><g opacity=".5"><path d="M28.01 47.88a1.007 1.007 0 0 1-1-.99 1.049 1.049 0 0 1 .08-.39.88.88 0 0 1 .22-.32 1.035 1.035 0 0 1 1.41 0 .997.997 0 0 1 .3.71.975.975 0 0 1-.3.7.988.988 0 0 1-.71.29ZM23.79 46.9a.992.992 0 0 1-.59-1.28.996.996 0 0 1 1.28-.6v.01a.995.995 0 0 1 .6 1.28 1.013 1.013 0 0 1-.94.65 1.07 1.07 0 0 1-.35-.06Zm-3.76-1.91h.01a.988.988 0 0 1-.28-1.38.988.988 0 0 1 1.38-.28.989.989 0 0 1 .28 1.38.997.997 0 0 1-.83.45.965.965 0 0 1-.56-.17Zm-3.21-2.73a.998.998 0 0 1 .06-1.41 1.007 1.007 0 0 1 1.41.05 1.018 1.018 0 0 1-.05 1.42 1.035 1.035 0 0 1-.68.26.986.986 0 0 1-.74-.32Zm27-2.3a.996.996 0 0 1-.31-1.38.993.993 0 0 1 1.38-.31 1.002 1.002 0 0 1 .31 1.38 1.006 1.006 0 0 1-.85.46 1.015 1.015 0 0 1-.53-.15Zm-29.49-1.09a.998.998 0 0 1 .38-1.36.987.987 0 0 1 1.36.37.996.996 0 0 1-.37 1.36 1.011 1.011 0 0 1-.5.13 1.005 1.005 0 0 1-.87-.5Zm31.42-2.4a1.01 1.01 0 0 1-.62-1.27 1.001 1.001 0 0 1 1.27-.62 1 1 0 0 1 .63 1.27 1.015 1.015 0 0 1-.95.68.955.955 0 0 1-.33-.06ZM12.7 34.98a.983.983 0 0 1 .68-1.23.994.994 0 0 1 1.24.68 1.003 1.003 0 0 1-.68 1.24 1.442 1.442 0 0 1-.28.04.992.992 0 0 1-.96-.73Zm34.13-2.35a.993.993 0 0 1-.9-1.09 1 1 0 0 1 1.09-.9 1.006 1.006 0 0 1 .9 1.09 1.008 1.008 0 0 1-1 .91.28.28 0 0 1-.09-.01Zm-34.81-1.8a1.012 1.012 0 0 1 .95-1.05.997.997 0 0 1 1.04.96h.01a1.01 1.01 0 0 1-.96 1.04h-.04a1 1 0 0 1-1-.95Zm33.83-3.03v-.01a.993.993 0 0 1 .85-1.12.995.995 0 0 1 1.13.85 1.003 1.003 0 0 1-.85 1.13.672.672 0 0 1-.14.01 1 1 0 0 1-.99-.86Zm-32.74-.01a1.003 1.003 0 0 1-.8-1.17 1.007 1.007 0 0 1 1.17-.79.996.996 0 0 1 .8 1.17.997.997 0 0 1-.98.81.62.62 0 0 1-.19-.02Zm31.79-3.62h.01a.988.988 0 0 1 .56-1.29 1.003 1.003 0 0 1 1.3.56 1 1 0 0 1-.57 1.3.92.92 0 0 1-.36.07 1.013 1.013 0 0 1-.94-.64Zm-30.82-.24a1.015 1.015 0 0 1-.5-1.33 1.016 1.016 0 0 1 1.33-.5 1.016 1.016 0 0 1 .5 1.33 1.006 1.006 0 0 1-.92.59 1.045 1.045 0 0 1-.41-.09Zm29.06-3.06a.995.995 0 0 1 .25-1.39.997.997 0 0 1 1.39.25.99.99 0 0 1-.25 1.39.99.99 0 0 1-.57.18.997.997 0 0 1-.82-.43Zm-27.21-.47a1.012 1.012 0 0 1-.17-1.41 1 1 0 0 1 1.4-.17.991.991 0 0 1 .18 1.4 1.03 1.03 0 0 1-.79.39 1.032 1.032 0 0 1-.62-.21Zm24.73-2.33a.998.998 0 0 1-.08-1.41.99.99 0 0 1 1.41-.08.998.998 0 0 1 .08 1.41 1 1 0 0 1-.75.33.99.99 0 0 1-.66-.25Zm-22.11-.68a1.01 1.01 0 0 1 .15-1.41 1.011 1.011 0 0 1 1.41.16.99.99 0 0 1-.15 1.4 1.009 1.009 0 0 1-.63.22.99.99 0 0 1-.78-.37Zm19.04-1.48a1 1 0 0 1-.4-1.35.996.996 0 0 1 1.35-.41 1.007 1.007 0 0 1 .41 1.36 1.01 1.01 0 0 1-.88.52.924.924 0 0 1-.48-.12Zm-15.8-.84a1.005 1.005 0 0 1 .48-1.33 1.001 1.001 0 0 1 1.33.47 1.003 1.003 0 0 1-.47 1.34 1.103 1.103 0 0 1-.43.09 1.01 1.01 0 0 1-.91-.57Zm12.32-.54a1.003 1.003 0 0 1-.71-1.22 1.003 1.003 0 0 1 1.22-.71 1 1 0 0 1 .72 1.22 1.012 1.012 0 0 1-.97.75.784.784 0 0 1-.26-.04Zm-8.62-.96a.988.988 0 0 1 .77-1.18 1.003 1.003 0 0 1 1.19.77 1.018 1.018 0 0 1-.78 1.19 1.461 1.461 0 0 1-.2.02 1.003 1.003 0 0 1-.98-.8Zm4.91.44a1.01 1.01 0 0 1-.97-1.03 1.003 1.003 0 0 1 1.02-.98h.01a1.01 1.01 0 0 1 .97 1.03 1.005 1.005 0 0 1-1 .98h-.03ZM41.8 43.23a.97.97 0 0 1-.7-.29.979.979 0 0 1 0-1.41 1.034 1.034 0 0 1 1.41 0 .966.966 0 0 1 .29.7.988.988 0 0 1-.29.71.974.974 0 0 1-.71.29Z" fill="#6d6daa" class="fill-6d6daa"></path></g><path d="M31.986 47.885a1 1 0 0 1-.114-1.993 15.998 15.998 0 0 0 7.218-2.723 1 1 0 0 1 1.137 1.646 17.996 17.996 0 0 1-8.124 3.063.939.939 0 0 1-.117.007Z" fill="#6d6daa" class="fill-6d6daa"></path><g opacity=".5"><path d="M30 20a1.032 1.032 0 0 1-.71-.29A1.014 1.014 0 1 1 30 20ZM29.54 41.03a.989.989 0 0 1 .95-1.04 1.004 1.004 0 0 1 1.05.95 1.005 1.005 0 0 1-.95 1.05h-.05a1.008 1.008 0 0 1-1-.96Zm-3.15.42a1 1 0 0 1-.65-1.25.997.997 0 0 1 1.25-.66 1.006 1.006 0 0 1 .66 1.25 1.004 1.004 0 0 1-.96.7 1.026 1.026 0 0 1-.3-.04Zm7.01-.94a1.004 1.004 0 0 1 .53-1.31.996.996 0 0 1 1.31.53.999.999 0 0 1-.53 1.31 1.05 1.05 0 0 1-.39.08 1.009 1.009 0 0 1-.92-.61Zm-10.75-1.03a.993.993 0 0 1-.18-1.4.994.994 0 0 1 1.4-.18 1.005 1.005 0 0 1 .18 1.41 1.018 1.018 0 0 1-.79.38.986.986 0 0 1-.61-.21Zm14.19-.8a1.008 1.008 0 0 1 .04-1.42.997.997 0 0 1 1.41.04.997.997 0 0 1-.04 1.41.97.97 0 0 1-.69.28 1.008 1.008 0 0 1-.72-.31Zm-17.03-2.34a1.003 1.003 0 0 1 .32-1.38 1.005 1.005 0 0 1 1.38.32 1.012 1.012 0 0 1-.32 1.38 1.038 1.038 0 0 1-.53.15 1.016 1.016 0 0 1-.85-.47Zm19.62-.58a1 1 0 0 1-.46-1.34.999.999 0 0 1 1.34-.45.988.988 0 0 1 .45 1.34.993.993 0 0 1-.89.55.978.978 0 0 1-.44-.1Zm-21.19-3.35a1 1 0 0 1 .78-1.18 1.002 1.002 0 0 1 1.18.78 1.003 1.003 0 0 1-.78 1.18 1.39 1.39 0 0 1-.2.02 1.003 1.003 0 0 1-.98-.8Zm22.6-.28a.99.99 0 0 1-.89-1.09 1 1 0 0 1 1.09-.9 1.014 1.014 0 0 1 .9 1.1 1.013 1.013 0 0 1-1 .9.349.349 0 0 1-.1-.01Zm-21.86-2.81a1.001 1.001 0 0 1-.84-1.14.993.993 0 0 1 1.13-.84.99.99 0 0 1 .84 1.14.988.988 0 0 1-.98.85.784.784 0 0 1-.15-.01Zm20.71-1.8a.997.997 0 0 1 .72-1.22.986.986 0 0 1 1.21.72 1 1 0 0 1-.72 1.22 1.002 1.002 0 0 1-.25.03.992.992 0 0 1-.96-.75ZM19.9 25.53a.992.992 0 0 1-.39-1.36.995.995 0 0 1 1.36-.38 1.007 1.007 0 0 1 .39 1.36 1.033 1.033 0 0 1-.88.51.941.941 0 0 1-.48-.13Zm2.17-3.22a1.012 1.012 0 0 1 .11-1.42.999.999 0 0 1 1.41.11 1.007 1.007 0 0 1-.1 1.41 1.034 1.034 0 0 1-.66.24.999.999 0 0 1-.76-.34Zm3.17-2.28a1.007 1.007 0 0 1 .59-1.29.997.997 0 0 1 1.28.6.987.987 0 0 1-.59 1.28 1.01 1.01 0 0 1-.34.06 1 1 0 0 1-.94-.65ZM39.02 24.71a.684.684 0 0 1-.2-.02 1.271 1.271 0 0 1-.18-.05 1.026 1.026 0 0 1-.18-.1.81.81 0 0 1-.15-.12 1.12 1.12 0 0 1-.22-.33.99.99 0 0 1-.07-.38.97.97 0 0 1 .29-.7 1.027 1.027 0 0 1 1.42 0 1.006 1.006 0 0 1 .29.7.981.981 0 0 1-.08.38.937.937 0 0 1-.21.33 1.005 1.005 0 0 1-.71.29Z" fill="#6d6daa" class="fill-6d6daa"></path></g><circle cx="30" cy="47" r="2" fill="#b1f1a8" class="fill-b1f1a8"></circle><circle cx="38" cy="22" r="2" fill="#96d7ff" class="fill-96d7ff"></circle><path d="M30 36a6 6 0 1 1 6-6 6.007 6.007 0 0 1-6 6Zm0-10a4 4 0 1 0 4 4 4.004 4.004 0 0 0-4-4ZM8 26a3 3 0 1 1 3-3 3.003 3.003 0 0 1-3 3Zm0-4a1 1 0 1 0 1 1 1.001 1.001 0 0 0-1-1ZM57 43a3 3 0 1 1 3-3 3.003 3.003 0 0 1-3 3Zm0-4a1 1 0 1 0 1 1 1.001 1.001 0 0 0-1-1ZM30 50a3 3 0 1 1 3-3 3.003 3.003 0 0 1-3 3Zm0-4a1 1 0 1 0 1 1 1.001 1.001 0 0 0-1-1ZM38 25a3 3 0 1 1 3-3 3.003 3.003 0 0 1-3 3Zm0-4a1 1 0 1 0 1 1 1.001 1.001 0 0 0-1-1Z" fill="#6d6daa" class="fill-6d6daa"></path></svg>