<?xml version="1.0" ?><svg id="icons" viewBox="0 0 340 340" xmlns="http://www.w3.org/2000/svg"><title/><circle cx="63.266" cy="63.701" r="38.573" style="fill:#ff8383"/><circle cx="128.831" cy="129.267" r="17.52" style="fill:#ffe5ad"/><circle cx="128.831" cy="129.267" r="9.239" style="fill:#fff7cd"/><circle cx="168.71" cy="169.235" r="24.586" style="fill:#ff976d"/><circle cx="168.71" cy="169.235" r="16.134" style="fill:#ffba9f"/><circle cx="225.102" cy="225.925" r="32.104" style="fill:#c3c9ff"/><circle cx="225.102" cy="225.925" r="19.828" style="fill:#cfd8ff"/><circle cx="286.34" cy="286.166" r="25.137" style="fill:#ffb16e"/><circle cx="286.34" cy="286.166" r="14.796" style="fill:#ffcc8b"/><path d="M63.266,21.129A42.573,42.573,0,1,0,105.838,63.7,42.621,42.621,0,0,0,63.266,21.129Zm0,77.145A34.573,34.573,0,1,1,97.838,63.7,34.613,34.613,0,0,1,63.266,98.274Z" style="fill:#2d3b5b"/><path d="M128.831,107.747a21.6,21.6,0,1,0,16.11,7.3c20.028-33.559,15.8-78.219-10.763-109.774a4,4,0,1,0-6.12,5.151c24.154,28.7,28.242,69.111,10.511,99.677A21.346,21.346,0,0,0,128.831,107.747Zm0,35.039a13.52,13.52,0,1,1,13.52-13.519A13.535,13.535,0,0,1,128.831,142.786Z" style="fill:#2d3b5b"/><path d="M168.709,140.649a28.638,28.638,0,1,0,20.656,8.855c12.469-20.215,19.08-43.979,19.121-68.971A153.977,153.977,0,0,0,188.269,4.945,4,4,0,0,0,181.3,8.873c25.142,44.6,25.7,96.171,1.749,135.649A28.4,28.4,0,0,0,168.709,140.649Zm0,49.173A20.587,20.587,0,1,1,189.3,169.236,20.61,20.61,0,0,1,168.709,189.822Z" style="fill:#2d3b5b"/><path d="M63.266,123.549a59.9,59.9,0,0,0,58.014-74.6,4,4,0,0,0-7.755,1.966A51.879,51.879,0,1,1,97.864,25.085a4,4,0,1,0,5.341-5.956,59.848,59.848,0,1,0-39.939,104.42Z" style="fill:#2d3b5b"/><path d="M108.3,30.423a4,4,0,0,0-1.233,5.521q.414.652.81,1.319a4,4,0,0,0,6.88-4.082q-.456-.769-.936-1.524A4,4,0,0,0,108.3,30.423Z" style="fill:#2d3b5b"/><path d="M96.083,145.286C67.337,155.432,34.348,149,9.99,128.493a4,4,0,0,0-5.152,6.12,98.8,98.8,0,0,0,63.38,23.4,91.676,91.676,0,0,0,30.527-5.182,4,4,0,0,0-2.662-7.544Z" style="fill:#2d3b5b"/><path d="M9.357,182.25a4,4,0,0,0-3.881,7,154.33,154.33,0,0,0,74.509,19.6,134.046,134.046,0,0,0,50.993-9.811,4,4,0,1,0-3.042-7.4C91.376,206.667,47.047,203.158,9.357,182.25Z" style="fill:#2d3b5b"/><path d="M5.615,247.311c29.332,14.778,60.878,23.589,91.229,25.481q6.266.392,12.466.39c26.16,0,51.248-5.192,73.195-15.22a4,4,0,1,0-3.324-7.276c-48.957,22.368-112.5,18.434-169.967-10.519a4,4,0,1,0-3.6,7.144Z" style="fill:#2d3b5b"/><path d="M246.39,5.09a4,4,0,1,0-7.13,3.629C271.9,72.847,273.015,143.513,242.487,194.3a36.249,36.249,0,1,0,6.546,4.63c15.8-26.024,24-57.29,23.713-90.708C272.453,74.051,263.338,38.39,246.39,5.09Zm6.815,220.835a28.1,28.1,0,1,1-28.1-28.1A28.136,28.136,0,0,1,253.205,225.925Z" style="fill:#2d3b5b"/><path d="M5.586,300.221c47.6,24.507,96.4,36.876,141.542,36.876,37.147,0,71.817-8.378,101.288-25.261a4,4,0,0,0-3.977-6.942C181.517,340.942,93.594,336.535,9.248,293.109a4,4,0,1,0-3.662,7.112Z" style="fill:#2d3b5b"/><path d="M293.9,3.357a4,4,0,0,0-1.71,5.393c47.324,91.27,48.563,186.634,3.485,249.822a29.2,29.2,0,1,0,7.226,3.64c46.108-65.649,44.861-163.664-3.609-257.145A4,4,0,0,0,293.9,3.357Zm13.577,282.809a21.138,21.138,0,1,1-21.137-21.137A21.162,21.162,0,0,1,307.477,286.166Z" style="fill:#2d3b5b"/></svg>